# xmcd
#
# Track frame offsets: 
#        150
#        14035
#        33265
#        45180
#        60050
#        78405
#        94805
#        113082
#        129300
#        140792
#        157327
#
# Disc length: 2357 seconds
#
# Revision: 6
# Processed by: cddbd v1.5.1PL0 Copyright (c) Steve Scherf et al.
# Submitted via: ExactAudioCopy v0.95a5
#
DISCID=8809330b
DTITLE=Lee Ann Womack - Some Things I Know
DYEAR=1998
DGENRE=Country
TTITLE0=Some Things I Know
TTITLE1=A Little Past Little Rock
TTITLE2=(Now You See Me) Now You Don't
TTITLE3=I'd Rather Have What We Had
TTITLE4=The Man Who Made My Mama Cry
TTITLE5=I'll Think Of A Reason Later
TTITLE6=Don't Tell Me
TTITLE7=I Keep Forgetting
TTITLE8=If You're Ever Down In Dallas
TTITLE9=When The Wheels Are Coming Off
TTITLE10=The Preacher Won't Have To Lie
EXTD=
EXTT0=
EXTT1=
EXTT2=
EXTT3=
EXTT4=
EXTT5=
EXTT6=
EXTT7=
EXTT8=
EXTT9=
EXTT10=
PLAYORDER=
